# xmcd
#
# Track frame offsets:
#	150
#	27061
#	44598
#	62116
#	77800
#	93240
#	117054
#	130623
#	145430
#	167605
#	190332
#	211284
#	236290
#	253933
#	269049
#	286930
#	304426
#	326753
#	343045
#
# Disc length: 4782 seconds
#
# Revision: 0
# Processed by: cddbd v1.5.2PL0 Copyright (c) Steve Scherf et al.
# Submitted via: EasyCDDAExtractor 16.0.9.1
#
DISCID=1e12ac13
DTITLE=Various Artist - Club Rotation Vol.2
DYEAR=2005
DGENRE=Dance
TTITLE0=Tune Up! - Forever Young
TTITLE1=DJ Aligator - Screw You
TTITLE2=Niels Van Gogh - Don't Be Afraid Of Tomorrow
TTITLE3=Martillo Vago - Que Es La Vida
TTITLE4=Ziggy X - X Rulez
TTITLE5=L. Project - Take The Future
TTITLE6=PSL - MF Chicken Dance
TTITLE7=Rocco - Breath Of Love
TTITLE8=Bulldozer - Face The Base
TTITLE9=Vanguazer - Mamma Mia
TTITLE10=Brisby and Jingles - We Love Disco
TTITLE11=Franky B. - Say Hello
TTITLE12=DJ Niels - Tomorrow
TTITLE13=DJ Dean - Ballanation
TTITLE14=Marc Van Linden - The Real Thing
TTITLE15=DJ Lawless and Oliver Swab - Push It Again
TTITLE16=Royal Deejays - The Anthem
TTITLE17=Scooter - Suavemente
TTITLE18=Osiris Project  - Never Let U Go
EXTD=
EXTT0=
EXTT1=
EXTT2=
EXTT3=
EXTT4=
EXTT5=
EXTT6=
EXTT7=
EXTT8=
EXTT9=
EXTT10=
EXTT11=
EXTT12=
EXTT13=
EXTT14=
EXTT15=
EXTT16=
EXTT17=
EXTT18=
PLAYORDER=
